<?xml version="1.0" standalone="no"?><!DOCTYPE svg PUBLIC "-//W3C//DTD SVG 1.1//EN" "http://www.w3.org/Graphics/SVG/1.1/DTD/svg11.dtd"><svg t="1576679825960" class="icon" viewBox="0 0 1024 1024" version="1.1" xmlns="http://www.w3.org/2000/svg" p-id="2210" xmlns:xlink="http://www.w3.org/1999/xlink" width="200" height="200"><defs><style type="text/css"></style></defs><path d="M136.562347 0m68.266666 0l0 0q68.266667 0 68.266667 68.266667l0 887.466666q0 68.266667-68.266667 68.266667l0 0q-68.266667 0-68.266666-68.266667l0-887.466666q0-68.266667 68.266666-68.266667Z" fill="#4D4D4D" p-id="2211"></path><path d="M563.229013 136.533333a153.6 153.6 0 0 1 0 307.2H273.09568V136.533333h290.133333m0-136.533333H225.309013A88.746667 88.746667 0 0 0 136.562347 88.746667v486.058666a4.778667 4.778667 0 0 0 5.461333 5.461334h421.205333a290.133333 290.133333 0 0 0 0-580.266667z" fill="#4D4D4D" p-id="2212"></path><path d="M597.362347 580.266667a153.6 153.6 0 0 1 0 307.2H273.09568V580.266667h324.266667m0-136.533334H136.562347v506.538667A73.728 73.728 0 0 0 210.290347 1024h387.072a290.133333 290.133333 0 0 0 0-580.266667z" fill="#4D4D4D" p-id="2213"></path></svg>