<?xml version="1.0" standalone="no"?><!DOCTYPE svg PUBLIC "-//W3C//DTD SVG 1.1//EN" "http://www.w3.org/Graphics/SVG/1.1/DTD/svg11.dtd"><svg t="1576679811526" class="icon" viewBox="0 0 1024 1024" version="1.1" xmlns="http://www.w3.org/2000/svg" p-id="1970" xmlns:xlink="http://www.w3.org/1999/xlink" width="200" height="200"><defs><style type="text/css"></style></defs><path d="M12.520841 961.408313m31.295844 0l938.875305 0q31.295844 0 31.295844 31.295843l0 0q0 31.295844-31.295844 31.295844l-938.875305 0q-31.295844 0-31.295844-31.295844l0 0q0-31.295844 31.295844-31.295843Z" fill="#4D4D4D" p-id="1971"></path><path d="M570.348379 5.219343m44.259006 44.259007l309.813045 309.813044q44.259006 44.259006 0 88.518013l-322.648157 322.648156q-44.259006 44.259006-88.518012 0l-309.813045-309.813044q-44.259006-44.259006 0-88.518013l322.648157-322.648156q44.259006-44.259006 88.518012 0Z" fill="#FFFF00" p-id="1972"></path><path d="M557.694435 819.9511a93.261614 93.261614 0 0 1-66.347188-27.540342L181.518396 482.581907a93.261614 93.261614 0 0 1 0-132.694376L503.865584 27.540342a93.261614 93.261614 0 0 1 131.442543 0l312.958435 309.828851a94.513447 94.513447 0 0 1 0 132.694377l-324.224939 322.347188a94.513447 94.513447 0 0 1-66.347188 27.540342zM572.71644 62.591687a29.418093 29.418093 0 0 0-21.90709 9.388753L225.332577 394.327628a31.295844 31.295844 0 0 0 0 43.814181l309.828851 312.958435a31.295844 31.295844 0 0 0 44.440098 0l322.347188-325.476772a30.04401 30.04401 0 0 0 0-43.814181L592.119863 71.98044A29.418093 29.418093 0 0 0 572.71644 62.591687z" fill="#4D4D4D" p-id="1973"></path><path d="M178.982582 436.120475m44.259006 44.259007l269.979939 269.979938q44.259006 44.259006 0 88.518013l-75.682901 75.682901q-44.259006 44.259006-88.518013 0l-269.979939-269.979939q-44.259006-44.259006 0-88.518013l75.682901-75.6829q44.259006-44.259006 88.518013 0Z" fill="#FFFF00" p-id="1974"></path><path d="M373.048958 964.537897A94.513447 94.513447 0 0 1 306.70177 938.875306L36.931599 667.227384a93.887531 93.887531 0 0 1 0-133.320294l75.735941-75.735941a93.887531 93.887531 0 0 1 66.347189-27.540342 93.887531 93.887531 0 0 1 66.347188 27.540342l270.396088 270.396088a92.00978 92.00978 0 0 1 26.914425 66.347188 94.513447 94.513447 0 0 1-26.914425 66.347189L439.396147 938.875306a93.261614 93.261614 0 0 1-66.347189 25.662591z m-194.034229-471.315403a31.92176 31.92176 0 0 0-21.907091 7.511002L81.371697 578.347188a31.295844 31.295844 0 0 0 0 44.440098l269.770171 269.770171a31.295844 31.295844 0 0 0 44.440098 0l75.735941-75.735941a31.295844 31.295844 0 0 0 8.762836-21.907091 32.547677 32.547677 0 0 0-8.762836-22.533007L200.921819 500.733496a31.92176 31.92176 0 0 0-21.90709-9.388753z" fill="#4D4D4D" p-id="1975"></path></svg>