<?xml version="1.0" standalone="no"?><!DOCTYPE svg PUBLIC "-//W3C//DTD SVG 1.1//EN" "http://www.w3.org/Graphics/SVG/1.1/DTD/svg11.dtd"><svg t="1576506430223" class="icon" viewBox="0 0 1024 1024" version="1.1" xmlns="http://www.w3.org/2000/svg" p-id="5808" xmlns:xlink="http://www.w3.org/1999/xlink" width="200" height="200"><defs><style type="text/css"></style></defs><path d="M288.752 319.495c-12.497-12.497-32.758-12.497-45.255 0L73.619 489.372a32 32 0 0 0 0 45.254l169.878 169.879c6.249 6.248 14.438 9.372 22.627 9.372s16.379-3.124 22.627-9.372c12.497-12.497 12.497-32.759 0-45.255L141.502 512l147.25-147.25c12.497-12.497 12.497-32.758 0-45.255zM950.38 489.372L780.504 319.495c-12.498-12.497-32.759-12.497-45.255 0-12.497 12.497-12.497 32.758 0 45.255L882.499 512l-147.25 147.251c-12.496 12.496-12.496 32.758 0.001 45.255 6.248 6.248 14.438 9.372 22.627 9.372s16.379-3.124 22.628-9.373l169.877-169.878c12.496-12.497 12.496-32.758-0.002-45.255zM600.417 312.63c-16.289-6.858-35.052 0.785-41.91 17.074L415.451 669.46c-6.858 16.288 0.786 35.052 17.074 41.91a31.892 31.892 0 0 0 12.404 2.517c12.488 0 24.355-7.359 29.506-19.591L617.491 354.54c6.858-16.288-0.786-35.052-17.074-41.91z" p-id="5809"></path></svg>