<?xml version="1.0" standalone="no"?><!DOCTYPE svg PUBLIC "-//W3C//DTD SVG 1.1//EN" "http://www.w3.org/Graphics/SVG/1.1/DTD/svg11.dtd"><svg t="1576679972330" class="icon" viewBox="0 0 1024 1024" version="1.1" xmlns="http://www.w3.org/2000/svg" p-id="3775" xmlns:xlink="http://www.w3.org/1999/xlink" width="200" height="200"><defs><style type="text/css"></style></defs><path d="M269.186501 903.957371h727.531083v60.627591h-727.531083zM269.186501 479.564239h727.531083v60.62759h-727.531083zM269.186501 55.171107h727.531083v60.62759h-727.531083z" fill="#4D4D4D" p-id="3776"></path><path d="M96.397869 39.407934l-41.226762 27.888691V29.707519L96.397869 0h43.651865v170.969805h-43.651865zM94.579041 424.393132c39.407934 0 60.62759 21.825933 60.62759 50.927176s-9.094139 33.951451-36.376554 60.62759L87.910006 561.411486h71.540556v33.951451H27.282416v-26.67614l60.62759-55.171107c21.219657-19.400829 24.857312-26.67614 24.857312-36.98283a21.219657 21.219657 0 0 0-23.64476-21.219657 23.64476 23.64476 0 0 0-24.857312 25.463588H27.282416A60.62759 60.62759 0 0 1 94.579041 424.393132zM76.99704 917.295441h21.825932a21.219657 21.219657 0 0 0 24.251036-20.613381 20.613381 20.613381 0 0 0-23.64476-20.007104c-15.763173 0-24.857312 7.881587-25.463588 21.825932H34.557726c0-32.738899 26.069864-54.564831 66.69035-54.564831s60.62759 21.219657 60.62759 46.683244a39.407934 39.407934 0 0 1-31.526347 38.801658 40.620485 40.620485 0 0 1 38.801658 41.226762c0 30.920071-29.101243 51.533452-70.328005 51.533451S31.526347 1002.174067 30.313795 970.041445h41.226762c0 13.33807 11.519242 21.219657 27.888691 21.219656s26.67614-8.487863 26.67614-21.825932-10.30669-21.219657-27.282416-21.219657H76.99704z" fill="#05AFC8" p-id="3777"></path></svg>