<?xml version="1.0" standalone="no"?><!DOCTYPE svg PUBLIC "-//W3C//DTD SVG 1.1//EN" "http://www.w3.org/Graphics/SVG/1.1/DTD/svg11.dtd"><svg t="1576679863169" class="icon" viewBox="0 0 1228 1024" version="1.1" xmlns="http://www.w3.org/2000/svg" p-id="2690" xmlns:xlink="http://www.w3.org/1999/xlink" width="239.84375" height="200"><defs><style type="text/css"></style></defs><path d="M853.350636 887.480501a32.082082 32.082082 0 0 1-23.890912-10.238963l-819.116996-819.116996a32.76468 32.76468 0 0 1 0-47.781825 32.76468 32.76468 0 0 1 47.781825 0l819.116996 819.116996a32.76468 32.76468 0 0 1 0 47.781825 32.082082 32.082082 0 0 1-23.890913 10.238963z" fill="#4D4D4D" p-id="2691"></path><path d="M34.23364 887.480501a32.082082 32.082082 0 0 1-23.890912-10.238963 32.76468 32.76468 0 0 1 0-47.781825l819.116996-819.116996a32.76468 32.76468 0 0 1 47.781825 0 32.76468 32.76468 0 0 1 0 47.781825l-819.116996 819.116996A32.082082 32.082082 0 0 1 34.23364 887.480501z" fill="#4D4D4D" p-id="2692"></path><path d="M1092.25976 629.458647c81.9117 0 136.519499 47.099227 136.5195 111.945989 0 45.051435-19.795327 76.45092-83.276895 136.5195L1059.49508 955.74025H1228.77926v68.25975h-277.817182v-55.972995l136.5195-129.010927c47.781825-46.41663 58.703385-64.164165 58.703384-90.102869a54.6078 54.6078 0 0 0-60.068579-54.6078 59.385982 59.385982 0 0 0-63.481567 62.79897h-75.768323A129.693524 129.693524 0 0 1 1092.25976 629.458647z" fill="#05AFC8" p-id="2693"></path></svg>