<?xml version="1.0" standalone="no"?><!DOCTYPE svg PUBLIC "-//W3C//DTD SVG 1.1//EN" "http://www.w3.org/Graphics/SVG/1.1/DTD/svg11.dtd"><svg t="1576679850651" class="icon" viewBox="0 0 1152 1024" version="1.1" xmlns="http://www.w3.org/2000/svg" p-id="2570" xmlns:xlink="http://www.w3.org/1999/xlink" width="225" height="200"><defs><style type="text/css"></style></defs><path d="M799.395895 1023.997442a30.053628 30.053628 0 0 1-22.380361-9.591583l-767.326671-767.326671a30.693067 30.693067 0 0 1 0-44.760722 30.693067 30.693067 0 0 1 44.760723 0l767.326671 767.32667a30.693067 30.693067 0 0 1 0 44.760723 30.053628 30.053628 0 0 1-22.380362 9.591583z" fill="#4D4D4D" p-id="2571"></path><path d="M32.069225 1023.997442a30.053628 30.053628 0 0 1-22.380362-9.591583 30.693067 30.693067 0 0 1 0-44.760723l767.326671-767.32667a31.332506 31.332506 0 0 1 44.760723 44.760722l-767.326671 767.326671A30.053628 30.053628 0 0 1 32.069225 1023.997442z" fill="#4D4D4D" p-id="2572"></path><path d="M1023.199508 0.895214c76.732667 0 127.887778 44.121284 127.887778 104.867979 0 42.202967-18.543728 71.617156-78.011545 127.887778l-80.5693 69.69884v4.476072H1151.087286v63.943889h-260.251629V320.614661l127.887779-120.853951c44.760722-43.481845 54.991745-60.107256 54.991744-84.405934a51.155111 51.155111 0 0 0-56.270622-51.155111 55.631184 55.631184 0 0 0-59.467817 58.828378h-70.977717A121.49339 121.49339 0 0 1 1023.199508 0.895214z" fill="#05AFC8" p-id="2573"></path></svg>