<?xml version="1.0" standalone="no"?><!DOCTYPE svg PUBLIC "-//W3C//DTD SVG 1.1//EN" "http://www.w3.org/Graphics/SVG/1.1/DTD/svg11.dtd"><svg t="1576680012242" class="icon" viewBox="0 0 1142 1024" version="1.1" xmlns="http://www.w3.org/2000/svg" p-id="4254" xmlns:xlink="http://www.w3.org/1999/xlink" width="223.046875" height="200"><defs><style type="text/css"></style></defs><path d="M1102.769231 39.384615v945.23077H39.384615V39.384615h1063.384616m0-39.384615H39.384615a39.384615 39.384615 0 0 0-39.384615 39.384615v945.23077a39.384615 39.384615 0 0 0 39.384615 39.384615h1063.384616a39.384615 39.384615 0 0 0 39.384615-39.384615V39.384615a39.384615 39.384615 0 0 0-39.384615-39.384615z" fill="#4D4D4D" p-id="4255"></path><path d="M39.384615 393.846154h1063.384616v39.384615H39.384615zM39.384615 590.769231h1063.384616v39.384615H39.384615zM39.384615 787.692308h1063.384616v39.384615H39.384615zM39.384615 196.923077h1063.384616v39.384615H39.384615z" fill="#B3B3B3" p-id="4256"></path><path d="M315.076923 196.923077v787.692308H275.692308V196.923077zM590.769231 196.923077v787.692308h-39.384616V196.923077zM866.461538 196.923077v787.692308h-39.384615V196.923077z" fill="#B3B3B3" p-id="4257"></path><path d="M39.384615 39.384615h1063.384616v157.538462H39.384615z" fill="#05AFC8" p-id="4258"></path></svg>