<?xml version="1.0" standalone="no"?><!DOCTYPE svg PUBLIC "-//W3C//DTD SVG 1.1//EN" "http://www.w3.org/Graphics/SVG/1.1/DTD/svg11.dtd"><svg t="1576679980646" class="icon" viewBox="0 0 1024 1024" version="1.1" xmlns="http://www.w3.org/2000/svg" p-id="3894" xmlns:xlink="http://www.w3.org/1999/xlink" width="200" height="200"><defs><style type="text/css"></style></defs><path d="M271.058824 903.529412h722.823529v60.235294H271.058824zM271.058824 481.882353h722.823529v60.235294H271.058824zM271.058824 60.235294h722.823529v60.235294H271.058824z" fill="#4D4D4D" p-id="3895"></path><path d="M30.117647 843.294118m60.235294 0l60.235294 0q60.235294 0 60.235294 60.235294l0 60.235294q0 60.235294-60.235294 60.235294l-60.235294 0q-60.235294 0-60.235294-60.235294l0-60.235294q0-60.235294 60.235294-60.235294Z" fill="#05AFC8" p-id="3896"></path><path d="M30.117647 421.647059m60.235294 0l60.235294 0q60.235294 0 60.235294 60.235294l0 60.235294q0 60.235294-60.235294 60.235294l-60.235294 0q-60.235294 0-60.235294-60.235294l0-60.235294q0-60.235294 60.235294-60.235294Z" fill="#05AFC8" p-id="3897"></path><path d="M30.117647 0m60.235294 0l60.235294 0q60.235294 0 60.235294 60.235294l0 60.235294q0 60.235294-60.235294 60.235294l-60.235294 0q-60.235294 0-60.235294-60.235294l0-60.235294q0-60.235294 60.235294-60.235294Z" fill="#05AFC8" p-id="3898"></path></svg>