<?xml version="1.0" standalone="no"?><!DOCTYPE svg PUBLIC "-//W3C//DTD SVG 1.1//EN" "http://www.w3.org/Graphics/SVG/1.1/DTD/svg11.dtd"><svg t="1576506864514" class="icon" viewBox="0 0 1024 1024" version="1.1" xmlns="http://www.w3.org/2000/svg" p-id="15505" xmlns:xlink="http://www.w3.org/1999/xlink" width="200" height="200"><defs><style type="text/css"></style></defs><path d="M910.2 170.7c0 15.2-12.7 28.4-28.3 28.4H142.1c-15.8 0-28.3-12.7-28.3-28.4 0-15.2 12.7-28.4 28.3-28.4h739.8c15.8-0.1 28.3 12.7 28.3 28.4zM910.2 625.8c0 15.2-12.7 28.4-28.3 28.4H142.1c-15.8 0-28.3-12.7-28.3-28.4 0-15.2 12.7-28.4 28.3-28.4h739.8c15.8-0.1 28.3 12.7 28.3 28.4zM739.6 853.3c0 15.2-12.7 28.4-28.5 28.4H312.9c-15.3 0-28.5-12.7-28.5-28.4 0-15.2 12.7-28.4 28.5-28.4h398.2c15.3 0 28.5 12.7 28.5 28.4zM739.6 398.2c0 15.2-12.7 28.4-28.5 28.4H312.9c-15.3 0-28.5-12.7-28.5-28.4 0-15.2 12.7-28.4 28.5-28.4h398.2c15.3 0 28.5 12.7 28.5 28.4z" p-id="15506"></path></svg>