<?xml version="1.0" standalone="no"?><!DOCTYPE svg PUBLIC "-//W3C//DTD SVG 1.1//EN" "http://www.w3.org/Graphics/SVG/1.1/DTD/svg11.dtd"><svg t="1576506852755" class="icon" viewBox="0 0 1024 1024" version="1.1" xmlns="http://www.w3.org/2000/svg" p-id="14788" xmlns:xlink="http://www.w3.org/1999/xlink" width="200" height="200"><defs><style type="text/css"></style></defs><path d="M832.86016 747.52 423.58784 747.52c-11.30496 0-20.48 9.15456-20.48 20.48s9.17504 20.48 20.48 20.48l409.25184 0c11.30496 0 20.48-9.15456 20.48-20.48S844.16512 747.52 832.86016 747.52z" p-id="14789"></path><path d="M853.34016 604.16c0-11.32544-9.17504-20.48-20.48-20.48l-614.4 0c-11.30496 0-20.48 9.15456-20.48 20.48s9.17504 20.48 20.48 20.48l614.4 0C844.16512 624.64 853.34016 615.48544 853.34016 604.16z" p-id="14790"></path><path d="M832.86016 256l-614.4 0c-11.30496 0-20.48 9.15456-20.48 20.48s9.17504 20.48 20.48 20.48l614.4 0c11.30496 0 20.48-9.15456 20.48-20.48S844.16512 256 832.86016 256z" p-id="14791"></path><path d="M832.86016 419.84 423.58784 419.84c-11.30496 0-20.48 9.15456-20.48 20.48s9.17504 20.48 20.48 20.48l409.25184 0c11.30496 0 20.48-9.15456 20.48-20.48S844.16512 419.84 832.86016 419.84z" p-id="14792"></path></svg>