<?xml version="1.0" standalone="no"?><!DOCTYPE svg PUBLIC "-//W3C//DTD SVG 1.1//EN" "http://www.w3.org/Graphics/SVG/1.1/DTD/svg11.dtd"><svg t="1576506544738" class="icon" viewBox="0 0 1024 1024" version="1.1" xmlns="http://www.w3.org/2000/svg" p-id="9182" xmlns:xlink="http://www.w3.org/1999/xlink" width="200" height="200"><defs><style type="text/css"></style></defs><path d="M810.944 625.5968s-79.04 142.848-79.04 185.2288a76.4736 76.4736 0 0 0-0.24 6.1312c0 43.6544 35.392 79.0432 79.0432 79.0432 43.6544 0 79.0432-35.3888 79.0432-79.0432 0-2.1568-0.0864-4.2944-0.256-6.4096 0.496-44.0032-78.5472-184.9504-78.5472-184.9504zM437.632 203.7088l-18.096 19.5264L328.112 128 255.2576 203.232l91.424 95.232-218.56 224.2784 309.5072 319.5072 309.5104-319.5072z m-205.7088 319.0336l206.656-212.8448 206.1824 212.8448z" fill="" p-id="9183"></path></svg>