<?xml version="1.0" standalone="no"?><!DOCTYPE svg PUBLIC "-//W3C//DTD SVG 1.1//EN" "http://www.w3.org/Graphics/SVG/1.1/DTD/svg11.dtd"><svg t="1576506555684" class="icon" viewBox="0 0 1024 1024" version="1.1" xmlns="http://www.w3.org/2000/svg" p-id="9951" xmlns:xlink="http://www.w3.org/1999/xlink" width="200" height="200"><defs><style type="text/css"></style></defs><path d="M131 835m8 0l746 0q8 0 8 8l0 56q0 8-8 8l-746 0q-8 0-8-8l0-56q0-8 8-8Z" p-id="9952"></path><path d="M145.05 650.9L274 751.68a44.23 44.23 0 0 0 27.13 9.32H616.5a43.74 43.74 0 0 0 34.68-16.91l239.49-306.54A68 68 0 0 0 879 342.1l-306-239a68.08 68.08 0 0 0-95.45 11.72L133.33 555.45a68 68 0 0 0 11.72 95.45z m386.81-488.6l299.61 234.08-183 234.26-299.63-234.08z m-227.35 291l299.61 234.07-1.27 1.63H310.77l-118.24-92.38z" p-id="9953"></path></svg>