<?xml version="1.0" standalone="no"?><!DOCTYPE svg PUBLIC "-//W3C//DTD SVG 1.1//EN" "http://www.w3.org/Graphics/SVG/1.1/DTD/svg11.dtd"><svg t="1576506508714" class="icon" viewBox="0 0 1024 1024" version="1.1" xmlns="http://www.w3.org/2000/svg" p-id="8635" xmlns:xlink="http://www.w3.org/1999/xlink" width="200" height="200"><defs><style type="text/css"></style></defs><path d="M363.349333 213.333333h36.010667c8.106667 0 14.634667 6.4 14.634667 14.208v23.381334a14.421333 14.421333 0 0 1-14.634667 14.208h-24.192c-25.002667 0-36.821333 13.44-36.821333 41.557333v125.354667c0 39.68-19.072 66.56-56.576 79.957333 37.504 15.36 56.576 41.557333 56.576 79.957333v125.994667c0 26.88 11.818667 40.917333 36.821333 40.917333h24.192c8.106667 0 14.634667 6.357333 14.634667 14.208v23.381334A14.421333 14.421333 0 0 1 399.36 810.666667h-36.010667c-28.970667 0-51.328-9.6-67.114666-27.52-14.506667-16.64-21.717333-39.637333-21.717334-67.754667v-120.234667c0-18.56-3.925333-32-11.861333-40.32-7.68-8.533333-20.309333-13.482667-37.973333-15.658666A12.714667 12.714667 0 0 1 213.333333 526.72v-28.8c0-6.698667 5.077333-12.330667 11.861334-13.226667 17.408-2.346667 29.866667-7.68 37.461333-15.530666 7.936-8.96 11.861333-22.4 11.861333-40.32V309.248c0-28.757333 7.253333-51.797333 21.717334-68.394667C312.021333 222.293333 334.378667 213.333333 363.349333 213.333333z m261.290667 0h36.010667c28.970667 0 51.328 8.96 67.114666 27.52 14.506667 16.64 21.717333 39.637333 21.717334 68.394667v119.594667c0 17.92 3.925333 32 12.501333 40.96 6.997333 7.338667 19.328 12.544 36.608 14.848a13.738667 13.738667 0 0 1 12.074667 13.482666v27.136a14.336 14.336 0 0 1-12.928 14.122667c-16.853333 2.261333-29.013333 7.210667-36.394667 15.445333-7.936 8.32-11.861333 21.76-11.861333 40.32v120.234667c0 28.16-7.253333 51.157333-21.717334 67.754667-15.786667 17.92-38.144 27.52-67.114666 27.52h-36.010667a14.421333 14.421333 0 0 1-14.634667-14.208v-23.381334c0-7.850667 6.528-14.208 14.634667-14.208h24.192c24.32 0 36.821333-14.08 36.821333-40.96v-125.952c0-38.4 18.432-64.597333 56.576-79.957333-38.144-13.44-56.576-40.277333-56.576-79.957333V306.688c0-28.16-12.501333-41.557333-36.821333-41.557333h-24.192a14.421333 14.421333 0 0 1-14.634667-14.208v-23.381334c0-7.850667 6.528-14.208 14.634667-14.208z" fill="#2B2F36" p-id="8636"></path></svg>