<?xml version="1.0" standalone="no"?><!DOCTYPE svg PUBLIC "-//W3C//DTD SVG 1.1//EN" "http://www.w3.org/Graphics/SVG/1.1/DTD/svg11.dtd"><svg t="1576506529173" class="icon" viewBox="0 0 1024 1024" version="1.1" xmlns="http://www.w3.org/2000/svg" p-id="8925" xmlns:xlink="http://www.w3.org/1999/xlink" width="200" height="200"><defs><style type="text/css"></style></defs><path d="M859.4 781.2H164.6c-3.9 0-7.1 3.2-7.1 7.1v70.9c0 3.9 3.2 7.1 7.1 7.1h694.7c3.9 0 7.1-3.2 7.1-7.1v-70.9c0-3.9-3.1-7.1-7-7.1z m-576.3-70.8h75.3c3.7 0 7.1-2.4 8.2-6l47.6-147h194.2l47.1 147c1.2 3.5 4.4 6 8.2 6h79c1 0 2-0.2 2.8-0.4 4.5-1.6 6.9-6.5 5.3-11L566.6 163.6c-1.2-3.5-4.5-5.8-8.2-5.8h-90.7c-3.7 0-7 2.3-8.2 5.8L275 699c-0.4 0.9-0.4 1.9-0.4 2.8-0.2 4.7 3.7 8.6 8.5 8.6z m226.8-457.1h3.6l74.3 233.6h-153l75.1-233.6z" p-id="8926"></path></svg>