<?xml version="1.0" standalone="no"?><!DOCTYPE svg PUBLIC "-//W3C//DTD SVG 1.1//EN" "http://www.w3.org/Graphics/SVG/1.1/DTD/svg11.dtd"><svg t="1576506481243" class="icon" viewBox="0 0 1024 1024" version="1.1" xmlns="http://www.w3.org/2000/svg" p-id="7492" xmlns:xlink="http://www.w3.org/1999/xlink" width="200" height="200"><defs><style type="text/css"></style></defs><path d="M128 170.666667 213.333333 170.666667 213.333333 426.666667 384 426.666667 384 170.666667 469.333333 170.666667 469.333333 768 384 768 384 512 213.333333 512 213.333333 768 128 768 128 170.666667M640 170.666667 810.666667 170.666667C857.6 170.666667 896 209.066667 896 256L896 682.666667C896 729.6 857.6 768 810.666667 768L640 768C593.066667 768 554.666667 729.6 554.666667 682.666667L554.666667 640 640 640 640 682.666667 810.666667 682.666667 810.666667 512 640 512 640 426.666667 810.666667 426.666667 810.666667 256 640 256 640 298.666667 554.666667 298.666667 554.666667 256C554.666667 209.066667 593.066667 170.666667 640 170.666667Z" p-id="7493"></path></svg>