<?xml version="1.0" standalone="no"?><!DOCTYPE svg PUBLIC "-//W3C//DTD SVG 1.1//EN" "http://www.w3.org/Graphics/SVG/1.1/DTD/svg11.dtd"><svg t="1576506897320" class="icon" viewBox="0 0 1024 1024" version="1.1" xmlns="http://www.w3.org/2000/svg" p-id="16257" xmlns:xlink="http://www.w3.org/1999/xlink" width="200" height="200"><defs><style type="text/css"></style></defs><path d="M928 160H96a32 32 0 0 0-32 32v640a32 32 0 0 0 32 32h832a32 32 0 0 0 32-32V192a32 32 0 0 0-32-32z m-40 632H136v-39.904l138.496-164.288 150.112 178.016 233.504-276.8 229.888 272.608v30.4z m0-129.792L664.192 396.8a7.904 7.904 0 0 0-12.192 0l-227.392 269.6-144-170.688a7.904 7.904 0 0 0-12.192 0L136 652.704V232h752v430.208zM304 456a88 88 0 1 0 0-176 88 88 0 1 0 0 176z m0-116a28 28 0 0 1 0 56 28 28 0 0 1 0-56z" p-id="16258"></path></svg>