<?xml version="1.0" standalone="no"?><!DOCTYPE svg PUBLIC "-//W3C//DTD SVG 1.1//EN" "http://www.w3.org/Graphics/SVG/1.1/DTD/svg11.dtd"><svg t="1576508177304" class="icon" viewBox="0 0 1024 1024" version="1.1" xmlns="http://www.w3.org/2000/svg" p-id="20297" xmlns:xlink="http://www.w3.org/1999/xlink" width="200" height="200"><defs><style type="text/css"></style></defs><path d="M913.5 917.2H362.2c-25.3 0-45.9-20.7-45.9-46.1 0-25.4 20.6-46.1 45.9-46.1h551.4c25.3 0 45.9 20.7 45.9 46.1-0.1 25.6-20.6 46.1-46 46.1z" p-id="20298"></path><path d="M64.6 876.1a80.1 80.4 0 1 0 160.2 0 80.1 80.4 0 1 0-160.2 0Z" p-id="20299"></path><path d="M913.5 546.7H362.2c-25.3 0-45.9-20.7-45.9-46.1 0-25.4 20.6-46.1 45.9-46.1h551.4c25.3 0 45.9 20.7 45.9 46.1-0.1 25.4-20.6 46.1-46 46.1z" p-id="20300"></path><path d="M64.6 509.5a80.1 80.4 0 1 0 160.2 0 80.1 80.4 0 1 0-160.2 0Z" p-id="20301"></path><path d="M913.5 180H362.2c-25.3 0-45.9-20.7-45.9-46.1 0-25.4 20.6-46.1 45.9-46.1h551.4c25.3 0 45.9 20.7 45.9 46.1-0.1 25.5-20.6 46.1-46 46.1z" p-id="20302"></path><path d="M64.6 143a80.1 80.4 0 1 0 160.2 0 80.1 80.4 0 1 0-160.2 0Z" p-id="20303"></path></svg>