<?xml version="1.0" standalone="no"?><!DOCTYPE svg PUBLIC "-//W3C//DTD SVG 1.1//EN" "http://www.w3.org/Graphics/SVG/1.1/DTD/svg11.dtd"><svg t="1576508008246" class="icon" viewBox="0 0 1024 1024" version="1.1" xmlns="http://www.w3.org/2000/svg" p-id="17853" xmlns:xlink="http://www.w3.org/1999/xlink" width="200" height="200"><defs><style type="text/css"></style></defs><path d="M803.349333 320H392.832c-164.949333 0-298.666667 133.717333-298.666667 298.666667s133.717333 298.666667 298.666667 298.666666h186.218667a21.333333 21.333333 0 0 0 21.333333-21.333333v-41.813333a21.333333 21.333333 0 0 0-21.333333-21.333334h-176.213334c-82.453333 0-213.333333-85.354667-213.333333-214.186666 0-128.832 130.88-213.333333 213.333333-213.333334h400.512l-123.264 123.264a21.333333 21.333333 0 0 0 0 30.165334l30.165334 30.186666a21.333333 21.333333 0 0 0 30.165333 0l196.096-196.117333c8.341333-8.32 12.501333-19.242667 12.501333-30.165333 0-10.922667-4.16-21.845333-12.501333-30.165334l-196.096-196.117333a21.333333 21.333333 0 0 0-30.165333 0l-30.165334 30.186667a21.333333 21.333333 0 0 0 0 30.165333L803.349333 320z" p-id="17854"></path></svg>