<?xml version="1.0" standalone="no"?><!DOCTYPE svg PUBLIC "-//W3C//DTD SVG 1.1//EN" "http://www.w3.org/Graphics/SVG/1.1/DTD/svg11.dtd"><svg t="1576510217811" class="icon" viewBox="0 0 1024 1024" version="1.1" xmlns="http://www.w3.org/2000/svg" p-id="21732" xmlns:xlink="http://www.w3.org/1999/xlink" width="200" height="200"><defs><style type="text/css"></style></defs><path d="M1013.333333 552.618667A53.333333 53.333333 0 0 0 960 499.2h-381.269333a20.992 20.992 0 0 1-12.032-3.84c-30.805333-21.888-63.232-41.856-94.634667-61.098667-119.466667-73.173333-192-123.733333-192-207.488 0-95.36 94.165333-109.610667 150.314667-109.610666a193.706667 193.706667 0 0 1 131.456 32.597333 113.578667 113.578667 0 0 1 19.072 84.906667v12.8a53.333333 53.333333 0 1 0 106.666666 0v-11.434667a208.512 208.512 0 0 0-49.706666-161.152C595.157333 31.616 527.317333 10.581333 430.549333 10.581333c-156.074667 0-256.981333 84.864-256.981333 216.277334 0 118.314667 80.725333 192.512 170.666667 252.885333a10.666667 10.666667 0 0 1-5.930667 19.541333H64a53.333333 53.333333 0 0 0 0 106.666667h468.352a10.709333 10.709333 0 0 1 6.784 2.474667 185.130667 185.130667 0 0 1 82.432 147.882666c0 139.434667-146.176 150.272-191.018667 150.272-77.397333 0-133.930667-17.28-163.584-50.048a144.810667 144.810667 0 0 1-27.733333-115.2 53.333333 53.333333 0 0 0-106.154667-10.496A245.76 245.76 0 0 0 187.733333 928.128c51.2 56.490667 132.864 85.333333 242.688 85.333333 178.090667 0 297.685333-103.253333 297.685334-256.938666a258.517333 258.517333 0 0 0-36.224-134.272 10.666667 10.666667 0 0 1 9.216-16.085334H960a53.333333 53.333333 0 0 0 53.333333-53.546666z" p-id="21733"></path></svg>