<?xml version="1.0" standalone="no"?><!DOCTYPE svg PUBLIC "-//W3C//DTD SVG 1.1//EN" "http://www.w3.org/Graphics/SVG/1.1/DTD/svg11.dtd"><svg t="1576506751399" class="icon" viewBox="0 0 1024 1024" version="1.1" xmlns="http://www.w3.org/2000/svg" p-id="12157" xmlns:xlink="http://www.w3.org/1999/xlink" width="200" height="200"><defs><style type="text/css"></style></defs><path d="M544 64h-135.6c-11 0-21.4 5.8-27.2 15.2l-80.6 130c-4.6 7.2-9 14.6-12.4 21-3.4-6.4-7.4-13.6-11.4-20.8L197 79.2c-5.8-9.4-16.2-15.2-27.2-15.2H32C14.4 64 0 78.4 0 96v64c0 17.6 14.4 32 32 32h60.2l105.6 154.6L84.6 512H32c-17.6 0-32 14.4-32 32v64c0 17.6 14.4 32 32 32h128c11 0 21.4-5.8 27.2-15.2l89.4-144.2c4.4-7.2 8.4-14.6 11.8-21.2 3.6 6.4 7.8 13.8 12.4 20.4l91.4 145.2c5.8 9.4 16 15 27 15H544c17.6 0 32-14.4 32-32v-64c0-17.6-14.4-32-32-32h-44l-117.2-168.6L488 192h56c17.6 0 32-14.4 32-32V96c0-17.6-14.4-32-32-32z m448 768H790.4c7-21 37.6-42.6 72.6-64.8 33.2-21.2 71-45.2 100.6-77.8 35-38.2 51.8-80.4 51.8-129.2 0-121.2-101.4-176.2-195.6-176.2-85 0-152.8 44-188.8 100.8-9.4 14.6-5.2 34 9.2 43.8l60.6 40.6c14 9.4 33 6.2 43.2-7.2 16-20.8 37.6-36.4 63.4-36.4 38.8 0 52.6 25.8 52.6 47.8 0 72.4-238.8 114-238.8 320 0 13.4 1.2 26 2.8 38.6 2.2 16 15.6 27.8 31.8 27.8H992c17.6 0 32-14.4 32-32v-64c0-17.4-14.4-31.8-32-31.8z" p-id="12158"></path></svg>