<?xml version="1.0" standalone="no"?><!DOCTYPE svg PUBLIC "-//W3C//DTD SVG 1.1//EN" "http://www.w3.org/Graphics/SVG/1.1/DTD/svg11.dtd"><svg t="1576506727135" class="icon" viewBox="0 0 1024 1024" version="1.1" xmlns="http://www.w3.org/2000/svg" p-id="11402" xmlns:xlink="http://www.w3.org/1999/xlink" width="200" height="200"><defs><style type="text/css"></style></defs><path d="M585.714286 782.285714v95.428572H444l-90.857143-144-13.714286-24q-4.571429-5.142857-6.285714-12h-1.714286q-0.571429 1.714286-1.428571 3.714285t-2 4.571429-1.714286 3.714286q-5.714286 11.428571-14.285714 25.142857l-88.571429 142.857143H76v-95.428572h73.142857l112.571429-166.285714-105.714286-155.428571H77.714286V364.571429h157.714285l79.428572 130.285714q1.142857 2.285714 13.142857 24 4.571429 5.142857 6.285714 12h1.714286q1.714286-5.142857 6.285714-12l14.285715-24 80-130.285714h146.857142v96H512l-105.142857 152.571428 116.571428 169.142857h62.285715z m364-388v117.714286h-293.714286l-1.714286-15.428571q-2.285714-16-2.285714-26.285715 0-36.571429 14.857143-66.857143t37.142857-49.428571 48-37.142857 48-31.142857 37.142857-30.857143 14.857143-36.571429q0-21.714286-16.857143-35.714285T794.857143 168.571429q-29.142857 0-55.428572 22.285714-8 6.285714-20.571428 21.714286l-60-52.571429q14.857143-21.142857 36-37.714286 47.428571-37.142857 107.428571-37.142857 62.857143 0 101.714286 34t38.857143 90.571429q0 32-14 58.857143t-35.428572 43.714285T846.857143 345.714286t-46.857143 28.857143-37.428571 29.428571-17.428572 36h132.571429v-45.714286h72z" p-id="11403"></path></svg>