<?xml version="1.0" standalone="no"?><!DOCTYPE svg PUBLIC "-//W3C//DTD SVG 1.1//EN" "http://www.w3.org/Graphics/SVG/1.1/DTD/svg11.dtd"><svg t="1576506934217" class="icon" viewBox="0 0 1024 1024" version="1.1" xmlns="http://www.w3.org/2000/svg" p-id="17092" xmlns:xlink="http://www.w3.org/1999/xlink" width="200" height="200"><defs><style type="text/css"></style></defs><path d="M329.142857 786.285714l0-109.714286q0-8-5.142857-13.142857t-13.142857-5.142857l-182.857143 0q-8 0-13.142857 5.142857t-5.142857 13.142857l0 109.714286q0 8 5.142857 13.142857t13.142857 5.142857l182.857143 0q8 0 13.142857-5.142857t5.142857-13.142857zm0-219.428571l0-109.714286q0-8-5.142857-13.142857t-13.142857-5.142857l-182.857143 0q-8 0-13.142857 5.142857t-5.142857 13.142857l0 109.714286q0 8 5.142857 13.142857t13.142857 5.142857l182.857143 0q8 0 13.142857-5.142857t5.142857-13.142857zm292.571429 219.428571l0-109.714286q0-8-5.142857-13.142857t-13.142857-5.142857l-182.857143 0q-8 0-13.142857 5.142857t-5.142857 13.142857l0 109.714286q0 8 5.142857 13.142857t13.142857 5.142857l182.857143 0q8 0 13.142857-5.142857t5.142857-13.142857zm-292.571429-438.857143l0-109.714286q0-8-5.142857-13.142857t-13.142857-5.142857l-182.857143 0q-8 0-13.142857 5.142857t-5.142857 13.142857l0 109.714286q0 8 5.142857 13.142857t13.142857 5.142857l182.857143 0q8 0 13.142857-5.142857t5.142857-13.142857zm292.571429 219.428571l0-109.714286q0-8-5.142857-13.142857t-13.142857-5.142857l-182.857143 0q-8 0-13.142857 5.142857t-5.142857 13.142857l0 109.714286q0 8 5.142857 13.142857t13.142857 5.142857l182.857143 0q8 0 13.142857-5.142857t5.142857-13.142857zm292.571429 219.428571l0-109.714286q0-8-5.142857-13.142857t-13.142857-5.142857l-182.857143 0q-8 0-13.142857 5.142857t-5.142857 13.142857l0 109.714286q0 8 5.142857 13.142857t13.142857 5.142857l182.857143 0q8 0 13.142857-5.142857t5.142857-13.142857zm-292.571429-438.857143l0-109.714286q0-8-5.142857-13.142857t-13.142857-5.142857l-182.857143 0q-8 0-13.142857 5.142857t-5.142857 13.142857l0 109.714286q0 8 5.142857 13.142857t13.142857 5.142857l182.857143 0q8 0 13.142857-5.142857t5.142857-13.142857zm292.571429 219.428571l0-109.714286q0-8-5.142857-13.142857t-13.142857-5.142857l-182.857143 0q-8 0-13.142857 5.142857t-5.142857 13.142857l0 109.714286q0 8 5.142857 13.142857t13.142857 5.142857l182.857143 0q8 0 13.142857-5.142857t5.142857-13.142857zm0-219.428571l0-109.714286q0-8-5.142857-13.142857t-13.142857-5.142857l-182.857143 0q-8 0-13.142857 5.142857t-5.142857 13.142857l0 109.714286q0 8 5.142857 13.142857t13.142857 5.142857l182.857143 0q8 0 13.142857-5.142857t5.142857-13.142857zm73.142857-182.857143l0 621.714286q0 37.714286-26.857143 64.571429t-64.571429 26.857143l-768 0q-37.714286 0-64.571429-26.857143t-26.857143-64.571429l0-621.714286q0-37.714286 26.857143-64.571429t64.571429-26.857143l768 0q37.714286 0 64.571429 26.857143t26.857143 64.571429z" p-id="17093"></path></svg>